<?xml version="1.0" encoding="UTF-8" standalone="no"?>
<!DOCTYPE svg PUBLIC "-//W3C//DTD SVG 1.1//EN" "http://www.w3.org/Graphics/SVG/1.1/DTD/svg11.dtd">
<svg xmlns="http://www.w3.org/2000/svg" viewBox="0 0 512.003 512.003" style="enable-background:new 0 0 512.003 512.003" xml:space="preserve"  width="107.000000pt" height="107.000000pt" preserveAspectRatio="xMidYMid meet"><path style="fill:#ff9478" d="M362.831 391.707c-25.892-11.225-37.781-41.314-26.557-67.205 11.225-25.892 41.314-37.781 67.205-26.557 25.892 11.225 95.317 66.257 84.092 92.149-11.224 25.892-98.849 12.838-124.74 1.613z"></path><path style="fill:#ff7956" d="M403.479 297.946c-25.892-11.225-55.98.665-67.205 26.557a51.663 51.663 0 0 0-2.102 5.813c14.784 14.829 35.166 23.938 57.336 23.938 3.589 0 7.222-.242 10.797-.719 14.105-1.883 34.755-8.499 54.764-17.255-18.744-17.49-41.172-32.951-53.59-38.334z"></path><path style="fill:#ff3f62" d="M398.334 323.798c-27.972 3.735-53.675-15.913-57.41-43.885-3.735-27.972 15.913-53.675 43.885-57.41s115.833 7.613 119.568 35.585-78.071 61.975-106.043 65.71z"></path><path style="fill:#d80027" d="M384.798 222.496c-26.425 3.528-45.41 26.665-44.281 52.796 10.638 5.019 22.442 7.747 34.721 7.747 12.753 0 25.522-3.087 36.924-8.926 14.867-7.614 36.058-24.384 54.016-42.483-28.472-8.365-65.085-11.31-81.38-9.134z"></path><path style="fill:#00ddc2" d="M398.498 247.418c-25.118 12.863-55.908 2.929-68.771-22.189s-2.929-55.908 22.189-68.771 111.724-31.514 124.587-6.396-52.887 84.493-78.005 97.356z"></path><path style="fill:#00ccb3" d="M399.33 194.91c7.614-12.689 15.64-34.101 21.318-56.104-26.932 2.974-55.881 11.068-68.733 17.649-25.118 12.863-35.052 43.653-22.189 68.771a51.275 51.275 0 0 0 5.749 8.848c26.172-1.879 50.267-16.52 63.855-39.164z"></path><path style="fill:#ffe477" d="M373.606 179.476c-14.52 24.198-45.908 32.043-70.105 17.522s-32.043-45.908-17.522-70.105c14.52-24.198 78.174-85.814 102.372-71.294s-.225 99.68-14.745 123.877z"></path><path style="fill:#ffeb99" d="M329.56 147.777c9.763-16.269 41.736-49.453 68.995-65.039-.281-12.829-3.207-22.94-10.204-27.139-24.198-14.52-87.852 47.096-102.372 71.294-14.52 24.198-6.675 55.585 17.522 70.105a50.844 50.844 0 0 0 28.61 7.228c-11.749-16.088-13.446-38.292-2.551-56.449z"></path><path style="fill:#ff9478" d="m28.869 314.45 41.45 1.771-15.115 29.108c-2.974 5.727-11.282 5.372-13.757-.588L28.869 314.45zM88.86 316.958l41.45 1.771-15.115 29.108c-2.974 5.727-11.282 5.372-13.757-.588L88.86 316.958zM164.726 379.815l-40.051 10.826 5.622-32.313c1.106-6.358 9.134-8.527 13.293-3.593l21.136 25.08zM106.777 395.536l-40.051 10.826 5.622-32.313c1.106-6.358 9.134-8.527 13.293-3.593l21.136 25.08zM148.852 319.465l41.45 1.771-15.115 29.108c-2.974 5.727-11.282 5.372-13.757-.588l-12.578-30.291z"></path><path style="fill:#ffdaaa" d="m93.687 217.942-60.425 7.582c-15.503 1.945-26.781 15.668-25.688 31.254l3.636 51.809c.886 12.621 11.095 22.57 23.734 23.13l206.307 9.144-201.32 55.1c-11.767 3.22-19.467 14.492-18.188 26.625l2.157 20.463c1.059 10.044 10.389 17.1 20.342 15.383l243.423-41.991s117.87-17.873 87.614-133.725c-.901.641-98.325-100.786-98.325-100.786L93.687 217.942z"></path><path style="fill:#ffc477" d="M379.895 309.754c-.614-8.364-2.087-17.351-4.617-27.039-.202.143-5.243-4.832-12.936-12.628l-77.195-6.249c-.001 0 23.677 73.027 94.748 45.916z"></path><path style="fill:#ff3f62" d="M11.21 308.587c.886 12.621 11.095 22.57 23.734 23.131l56.616 2.509-11-114.638-47.298 5.935c-15.503 1.945-26.781 15.668-25.688 31.254l3.636 51.809z"></path><path style="fill:#57565c" d="M32.949 272.003c0-10.565-9.413-19.13-21.025-19.13-1.503 0-2.967.149-4.381.422a29.797 29.797 0 0 0 .032 3.482l2.405 34.267c.641.054 1.288.089 1.945.089 11.611.001 21.024-8.564 21.024-19.13z"></path><path style="fill:#ffc477" d="M265.039 317.126 10.822 303.058l.388 5.528c.886 12.62 11.095 22.57 23.734 23.13l206.307 9.144-201.321 55.1c-11.767 3.22-19.467 14.492-18.188 26.625l.967 9.172 234.379-65.418 7.951-49.213z"></path><circle style="fill:#a4e276" cx="338.631" cy="233.1" r="61.682"></circle><path style="fill:#91dc5a" d="M388.64 261.004c-34.066 0-61.682-27.616-61.682-61.682a61.412 61.412 0 0 1 6.561-27.677c-31.67 2.603-56.566 29.113-56.566 61.454 0 34.066 27.616 61.682 61.682 61.682 24.111 0 44.977-13.842 55.121-34.006a61.8 61.8 0 0 1-5.116.229z"></path><path style="fill:#00ddc2" d="M338.635 276.681c-24.031 0-43.582-19.55-43.582-43.581s19.551-43.581 43.582-43.581 43.581 19.55 43.581 43.581-19.55 43.581-43.581 43.581z"></path><path style="fill:#00ccb3" d="M326.958 199.322c0-2.84.209-5.63.58-8.368-18.673 4.921-32.485 21.948-32.485 42.145 0 24.031 19.551 43.581 43.582 43.581 14.277 0 26.971-6.9 34.925-17.541-26.775-6.728-46.602-30.954-46.602-59.817z"></path><circle style="fill:#ff3f62" cx="338.631" cy="233.1" r="19.692"></circle><path style="fill:#d80027" d="M329.205 215.811c-6.114 3.342-10.262 9.83-10.262 17.288 0 10.875 8.816 19.692 19.692 19.692a19.61 19.61 0 0 0 12.523-4.495c-10.498-8.046-18.327-19.389-21.953-32.485z"></path><circle style="fill:#fff" cx="203.541" cy="242.26" r="48.878"></circle><path style="fill:#ddfffb" d="M252.416 242.256c0-26.994-21.883-48.878-48.878-48.878-26.994 0-48.878 21.883-48.878 48.878 0 3.453.363 6.821 1.044 10.071 19.306 2.545 42.006 4.641 64.422 4.642h.016c10.956 0 21.095-.494 30.447-1.482a48.867 48.867 0 0 0 1.827-13.231z"></path><path style="fill:#ff3f62" d="M203.539 273.033c-16.97 0-30.777-13.806-30.777-30.777 0-16.972 13.807-30.778 30.777-30.778s30.777 13.806 30.777 30.778c0 16.97-13.807 30.777-30.777 30.777z"></path><path style="fill:#d80027" d="M234.316 242.256c0-16.972-13.807-30.778-30.777-30.778s-30.777 13.806-30.777 30.778c0 4.387.929 8.56 2.591 12.34 14.296 1.41 29.6 2.372 44.774 2.373h.016c3.594 0 7.09-.059 10.51-.165a30.589 30.589 0 0 0 3.663-14.548z"></path><path style="fill:#3e3d42" d="M203.539 256.543c-6.99 0-12.677-5.687-12.677-12.676 0-6.99 5.687-12.677 12.677-12.677s12.677 5.687 12.677 12.677c0 6.989-5.688 12.676-12.677 12.676z"></path><path style="fill:#2d2d30" d="M203.338 243.867c0-4.722 2.6-8.842 6.439-11.023a12.584 12.584 0 0 0-6.238-1.654c-6.99 0-12.677 5.687-12.677 12.677 0 6.989 5.687 12.676 12.677 12.676 2.268 0 4.394-.606 6.238-1.654-3.839-2.181-6.439-6.301-6.439-11.022z"></path><circle style="fill:#ff3f62" cx="265.041" cy="181.93" r="47.06"></circle><path style="fill:#d80027" d="M265.039 134.867c-3.565 0-7.032.409-10.37 1.16 21 4.725 36.692 23.475 36.692 45.901 0 22.427-15.692 41.177-36.692 45.902a47.179 47.179 0 0 0 10.37 1.16c25.992 0 47.062-21.07 47.062-47.062 0-25.99-21.071-47.061-47.062-47.061z"></path><path style="fill:#ffe477" d="M312.101 174.526s-81.559-11.029-218.413 43.415c-.001 2.084 239.279 57.462 218.413-43.415z"></path><path style="fill:#ffda44" d="M312.101 174.526s-7.468-1.006-21.652-.908c-12.233 45.249-102.558 40.777-163.127 31.836a768.223 768.223 0 0 0-33.634 12.487c-.001 2.084 239.279 57.462 218.413-43.415z"></path><circle style="fill:#00ddc2" cx="252.411" cy="339.62" r="37.758"></circle><path style="fill:#00ccb3" d="M252.417 366.452c-14.797 0-26.836-12.038-26.836-26.835 0-14.798 12.039-26.836 26.836-26.836 14.797 0 26.835 12.038 26.835 26.836 0 14.797-12.039 26.835-26.835 26.835z"></path><circle style="fill:#ffe477" cx="252.411" cy="339.62" r="16.836"></circle><path style="fill:#ffda44" d="M250.173 331.938c0-3.37 1-6.501 2.705-9.133-.155-.004-.306-.023-.462-.023-9.298 0-16.836 7.538-16.836 16.836s7.538 16.836 16.836 16.836c5.929 0 11.131-3.071 14.13-7.703-9.082-.248-16.373-7.671-16.373-16.813z"></path><path d="M338.635 260.291c14.993 0 27.191-12.198 27.191-27.191s-12.198-27.191-27.191-27.191c-14.994 0-27.192 12.198-27.192 27.191s12.199 27.191 27.192 27.191zm0-39.383c6.722 0 12.191 5.469 12.191 12.191s-5.469 12.191-12.191 12.191c-6.723 0-12.192-5.469-12.192-12.191s5.47-12.191 12.192-12.191zM276.752 339.617c0-13.419-10.917-24.336-24.335-24.336-13.419 0-24.336 10.917-24.336 24.336 0 13.418 10.917 24.335 24.336 24.335 13.418 0 24.335-10.917 24.335-24.335zm-33.671 0c0-5.147 4.188-9.336 9.336-9.336 5.147 0 9.335 4.188 9.335 9.336s-4.188 9.335-9.335 9.335c-5.148 0-9.336-4.187-9.336-9.335z"></path><path d="M511.811 257.096c-2.943-22.048-39.279-32.866-65.156-37.803a262.292 262.292 0 0 0 10.616-10.887c24.5-26.711 33.216-47.491 25.908-61.762-11.511-22.477-58.443-17.056-84.679-12.02 3.463-13.123 5.895-26.057 6.961-37.391 2.371-25.193-2.088-41.364-13.252-48.063-13.748-8.249-34.695-.477-63.361 21.703-36.415 28.176-51.362 55.839-52.246 57.747a54.135 54.135 0 0 0-11.564-1.251c-27.67 0-50.578 20.708-54.082 47.437-32.749 6.452-72.757 17.425-119.138 35.813l-59.491 7.465C12.879 220.524-1.28 237.752.092 257.305l3.636 51.81c1.064 15.161 12.456 27.342 27.138 29.706l3.654 8.799c2.275 5.479 7.371 9.04 13.298 9.294.225.009 9.692.44 14.042-8.126l4.248-8.18 24.909 1.104 3.495 8.416c2.275 5.479 7.371 9.04 13.298 9.293.224.01 9.422.344 14.041-8.126l4.171-8.032 25.05 1.11 3.43 8.261a15.318 15.318 0 0 0 2.12 3.615l-1.584.434-5.713-6.779c-3.823-4.537-9.755-6.393-15.483-4.846-5.727 1.549-9.917 6.142-10.934 11.985l-1.541 8.855-24.183 6.619-5.808-6.893c-3.823-4.536-9.755-6.393-15.483-4.846-5.727 1.549-9.917 6.142-10.934 11.986l-1.566 9-25.442 6.963c-15.386 4.21-25.339 18.78-23.667 34.645l2.157 20.463c.721 6.843 8.381 24.396 29.075 21.987l243.355-41.979c2.577-.401 36.333-6.025 63.78-28.982 35.417 23.36 108.484 16.953 115.945 15.313 13.528-2.975 22.228-8.727 25.856-17.096 10.543-24.32-27.277-59.17-48.764-76.42 7.269-3.098 14.463-6.492 21.074-10.001 13.475-7.153 24.145-14.414 31.712-21.58 10.057-9.525 14.545-18.939 13.337-27.981zM338.222 82.582c16.27-12.281 37.585-25.761 46.269-20.552 11.147 6.689 7.831 48.196-7.241 90.638a7.5 7.5 0 0 0 4.558 9.577c.83.295 7.554.879 9.577-4.558.828-2.224 1.558-4.494 2.3-6.762 38.593-8.565 70.954-7.576 76.143 2.556 4.619 9.019-9.833 29.762-23.611 44.784-12.334 13.447-26.902 26.028-38.411 34.358-.258-37.927-31.183-68.706-69.17-68.706a68.772 68.772 0 0 0-21.06 3.286c-4.074-14.552-13.992-26.461-26.841-33.354.52-1.049 16.991-28.246 47.487-51.267zm.413 204.7c-29.822 0-54.09-24.22-54.178-54.021a92.04 92.04 0 0 0 3.104-1.251c-.008.363-.766 11.198 4.453 21.994 3.039 6.287 8.918 4.211 9.917 3.761a7.5 7.5 0 0 0 3.761-9.917 35.687 35.687 0 0 1-3.154-14.748c0-3.744.578-7.429 1.708-10.962 6.244-5.179 10.751-11.37 13.484-18.42 6.131-4.375 13.338-6.699 20.89-6.699 19.896 0 36.082 16.186 36.082 36.081s-16.186 36.081-36.082 36.081a35.83 35.83 0 0 1-12.864-2.368 7.501 7.501 0 0 0-5.366 14.008 50.783 50.783 0 0 0 18.229 3.36c28.167 0 51.082-22.915 51.082-51.081s-22.915-51.081-51.082-51.081a50.823 50.823 0 0 0-17.773 3.178 59.662 59.662 0 0 0-.146-3.241c5.73-2.015 11.738-3.037 17.933-3.037 29.876 0 54.182 24.306 54.182 54.182s-24.304 54.181-54.18 54.181zm-73.596-144.915c15.959 0 30.156 9.663 36.314 23.857-13.716-.528-39.064-.179-74.596 5.713 4.439-16.992 19.918-29.57 38.282-29.57zm40.583 39.142c1.304 12.186-2.181 21.632-10.574 28.768-17.583 14.948-55.952 20.311-110.959 15.508-25.578-2.234-48.992-6.177-65.14-9.418 100.89-36.506 167.767-35.979 186.673-34.858zM203.539 283.634c-22.816 0-41.378-18.563-41.378-41.378 0-1.237.074-2.468.182-3.694a583.469 583.469 0 0 0 17.073 1.86c1.413.132 2.805.253 4.198.372-.517 17.843 8.799 23.249 19.925 23.249s21.612-7.5 20.123-21.558c7.504-.073 14.583-.403 21.239-.987 0 28.869-18.546 42.136-41.362 42.136zm4.918-41.339c1.319 4.177-2.064 6.748-4.919 6.748s-6.134-2.67-4.777-7.174c3.298.181 6.529.323 9.696.426zM16.919 282.802l-1.546-22.031c5.789 1.316 10.076 5.846 10.076 11.232 0 4.895-3.54 9.085-8.53 10.799zm2.249 28.23 191.723 10.609a44.848 44.848 0 0 0-3.056 10.232l-172.559-7.649c-7.815-.346-14.287-5.826-16.108-13.192zm202.99 28.585c0-16.685 13.574-30.259 30.258-30.259s30.258 13.574 30.258 30.259-13.574 30.258-30.258 30.258-30.258-13.573-30.258-30.258zM41.911 403.195l168.73-46.18a45.336 45.336 0 0 0 7.711 12.35L29.201 421.799a17.332 17.332 0 0 1 12.71-18.604zm244.628 5.83-.15.024L42.966 451.04c-9.262.793-11.316-6.007-11.608-8.778l-.526-4.986 202.658-56.564a44.97 44.97 0 0 0 18.926 4.163c24.955 0 45.258-20.303 45.258-45.258 0-24.956-20.303-45.259-45.258-45.259-12.24 0-23.353 4.892-31.508 12.814L23.676 296.259c9.88-4.189 16.772-13.482 16.772-24.256 0-13.095-10.18-24.005-23.537-26.214 3.034-6.784 9.428-11.838 17.284-12.824l39.636-4.974 4.741 49.406a7.5 7.5 0 0 0 7.457 6.784c.239 0 8.3-1.127 7.475-8.218l-4.783-49.841 4.037-.507c7.115 2.233 28.212 7.021 54.714 10.93a56.895 56.895 0 0 0-.312 5.709c0 31.087 25.291 56.378 56.378 56.378s56.378-25.291 56.378-56.378c0-.872-.025-1.744-.065-2.616 3.394-.56 6.656-1.199 9.773-1.922 2.387 36 32.417 64.564 69.011 64.564a68.726 68.726 0 0 0 31.655-7.699c5.382 27.717 1.836 51.315-10.6 70.25-23.767 36.194-72.669 44.119-73.151 44.194zm180.113-52.067c11.264 13.175 16.511 24.446 14.038 30.152-2.52 5.811-17.016 11.973-49.585 10.22-26.052-1.403-51.21-4.318-67.186-13.401a95.914 95.914 0 0 0 8.241-10.757c8.15-12.375 13.108-26.281 14.866-41.61 1.487.115 17.201 3.063 42.477-8.545 14.431 10.801 27.741 22.936 37.149 33.941zm-6.922-63.551c-45.807 24.843-68.814 23.457-71.995 23.179-.163-9.846-1.515-20.207-4.043-31.054 10.044-8.643 17.581-20.109 21.374-33.162 7.795-4.495 17.618-11.783 27.507-20.246 16.902 2.485 32.3 6.31 43.666 10.869 12.46 4.999 20.007 10.862 20.704 16.087.838 6.279-8.543 18.778-37.213 34.327z"></path></svg>